<?xml version="1.0" standalone="no"?>
<!DOCTYPE svg PUBLIC "-//W3C//DTD SVG 20010904//EN"
 "http://www.w3.org/TR/2001/REC-SVG-20010904/DTD/svg10.dtd">
<svg version="1.0" xmlns="http://www.w3.org/2000/svg"
 width="512.000000pt" height="512.000000pt" viewBox="0 0 512.000000 512.000000"
 preserveAspectRatio="xMidYMid meet">
<metadata>
Created by potrace 1.14, written by Peter Selinger 2001-2017
</metadata>
<g transform="translate(0.000000,512.000000) scale(0.100000,-0.100000)"
fill="#000000" stroke="none">
<path d="M4513 4975 c-53 -23 -66 -66 -49 -160 2 -12 1 -26 -2 -32 -7 -9 -180
-39 -187 -31 -4 3 -7 21 -20 93 -3 17 -20 43 -37 59 -27 24 -37 27 -72 23 -74
-10 -104 -78 -77 -174 9 -31 9 -32 -32 -38 -23 -4 -49 -9 -57 -10 -8 -1 -38
-6 -66 -10 -99 -13 -102 -18 -179 -246 -37 -112 -71 -212 -76 -221 -5 -9 -207
-216 -449 -458 l-439 -441 -63 51 c-86 70 -223 135 -328 156 -221 44 -468 -26
-620 -176 -98 -97 -169 -212 -269 -440 -32 -72 -92 -135 -161 -169 -62 -32
-98 -41 -260 -72 -301 -57 -526 -167 -697 -341 -186 -189 -295 -379 -350 -611
-17 -73 -24 -316 -11 -382 4 -16 10 -46 14 -65 35 -175 146 -395 285 -566 217
-266 490 -456 774 -539 133 -38 283 -50 430 -32 140 16 321 83 449 165 131 84
296 235 375 344 117 162 171 312 222 623 21 130 70 234 137 293 15 13 99 59
187 102 274 135 358 204 400 325 68 199 -60 378 -276 384 -79 2 -106 10 -131
37 -21 24 -32 83 -23 123 5 22 160 184 623 649 l617 620 490 350 c270 192 498
359 509 370 23 26 28 79 11 112 -7 14 -52 63 -99 108 -96 92 -86 89 -242 70
-52 -6 -96 -9 -98 -7 -2 2 -6 25 -9 51 -7 60 -29 101 -62 116 -32 15 -42 15
-82 -3z m340 -360 c4 -10 -44 -50 -161 -135 -92 -66 -176 -126 -187 -134 -195
-142 -457 -326 -463 -326 -4 0 -46 39 -93 88 l-87 87 51 152 c55 169 43 155
152 168 28 3 61 7 75 10 41 8 79 13 205 30 66 9 131 18 145 20 72 12 232 35
280 41 30 3 57 8 59 10 9 8 19 4 24 -11z m-1031 -663 l66 -68 -771 -772 -771
-773 -68 68 c-37 37 -67 71 -66 75 4 10 1531 1538 1538 1538 3 0 35 -31 72
-68z m-1411 -629 c79 -29 209 -113 209 -137 0 -5 -143 -153 -317 -328 -175
-175 -320 -321 -321 -323 -13 -14 -18 -75 -8 -94 12 -22 255 -272 308 -316 33
-28 76 -32 116 -11 15 8 81 69 147 135 66 67 122 121 126 121 4 0 12 -13 19
-30 15 -37 85 -102 140 -130 30 -15 71 -24 136 -29 109 -8 134 -23 136 -83 3
-77 -52 -121 -312 -250 -166 -82 -192 -99 -250 -158 -99 -100 -160 -243 -186
-435 -24 -175 -77 -331 -153 -447 -126 -192 -363 -372 -575 -437 -222 -68
-458 -42 -689 77 -127 65 -233 146 -357 271 -257 260 -382 530 -375 810 3 126
5 143 36 240 46 144 130 279 260 416 154 161 340 250 644 305 213 39 320 86
420 187 46 45 69 81 121 192 36 75 77 159 91 186 55 106 132 186 223 233 48
26 76 35 165 56 45 11 192 -2 246 -21z"/>
<path d="M1616 2149 c-61 -17 -91 -82 -62 -136 21 -40 306 -320 338 -332 36
-14 92 3 112 34 24 36 20 88 -8 122 -61 73 -308 308 -328 314 -13 3 -36 2 -52
-2z"/>
<path d="M1291 1839 c-36 -36 -41 -79 -13 -121 31 -47 311 -317 334 -323 49
-12 92 7 112 50 31 65 24 78 -144 246 -85 86 -165 162 -177 168 -39 20 -79 13
-112 -20z"/>
<path d="M751 1577 c-14 -6 -33 -27 -44 -44 -35 -61 -25 -75 229 -329 234
-233 235 -234 278 -234 33 0 49 6 70 26 25 25 29 34 29 69 0 8 -1 22 -2 32 -1
17 -432 457 -465 475 -30 17 -69 19 -95 5z"/>
<path d="M1856 994 c-14 -15 -27 -34 -27 -43 -1 -9 -2 -23 -3 -31 -2 -21 26
-70 47 -82 10 -5 32 -10 48 -10 89 -3 133 100 70 163 -40 39 -97 41 -135 3z"/>
<path d="M1431 851 c-57 -61 -22 -155 60 -165 84 -10 138 95 83 159 -19 23
-34 29 -71 31 -40 2 -50 -1 -72 -25z"/>
</g>
</svg>
